<svg width="1440" height="1360" viewBox="0 0 1440 1360" fill="none" xmlns="http://www.w3.org/2000/svg">
<g clip-path="url(#clip0_1457_22444)">
<rect width="1440" height="1360" fill="#F2F6FF"/>
<g opacity="0.5" filter="url(#filter0_d_1457_22444)">
<path d="M17 644C293.118 660.384 421 942.324 651 965C881 987.676 1285 909 1358 1084" stroke="url(#paint0_linear_1457_22444)" stroke-linecap="round" stroke-dasharray="200 100"/>
</g>
<g opacity="0.2" filter="url(#filter1_d_1457_22444)">
<path d="M-12 654C253 654 421 967.118 661 983C901 998.882 1294.78 913.526 1357 1098" stroke="url(#paint1_linear_1457_22444)" stroke-linecap="round" stroke-dasharray="100 50"/>
</g>
<g opacity="0.2" filter="url(#filter2_d_1457_22444)">
<path d="M-22 664C243 664 372 959 651 993C930 1027 1296.78 929.526 1359 1114" stroke="url(#paint2_linear_1457_22444)" stroke-width="0.5" stroke-linecap="round" stroke-dasharray="50 100"/>
</g>
<g filter="url(#filter3_d_1457_22444)">
<path d="M61 616C262 630 420 914.605 657 944C894 973.395 1300.59 872.866 1374 1088" stroke="url(#paint3_linear_1457_22444)" stroke-linecap="round" stroke-dasharray="200 100"/>
</g>
<path d="M128.353 1003.86C336.733 911.292 362.482 932.68 467.767 796.842C573.052 661.003 698.327 735.753 828.389 631.92C958.45 528.087 938.631 471.63 1034.49 395.27C1186.4 274.253 1123.91 185.709 1507.91 -7.2915C1507.91 -7.2915 1391.91 -39.2915 1151.91 128.708C989.912 214.708 851.815 161.108 737.913 185.709C147.7 313.187 -370.229 1254.97 -370.229 1254.97L-153.1 1391.33C-153.1 1391.33 -80.4091 1096.59 128.353 1003.86Z" fill="#E3E8FF"/>
<path d="M186.573 887.397C394.953 794.83 337.172 727.576 442.899 602.079C548.626 476.582 663.152 568.834 793.214 465.001C923.275 361.168 905.912 443.299 1097.91 224.708C1289.91 6.1183 1539.91 40.7084 1539.91 40.7084C1503.91 -43.2915 1305.91 -37.2911 1111.91 92.7089C950.549 200.841 738.157 134.709 543.913 134.709C297.913 134.709 85.1464 245.338 -66.0873 316.709C-495.549 519.382 -731.092 868.974 -731.092 868.974L-208.826 1391.24C-208.826 1391.24 -22.1894 980.133 186.573 887.397Z" fill="url(#paint4_linear_1457_22444)"/>
<path d="M161.439 351.151C369.819 258.584 395.568 279.972 500.853 144.134C606.138 8.29556 731.413 83.0455 861.474 -20.7875C991.536 -124.62 971.717 -181.078 1067.57 -257.438C1219.49 -378.455 1157 -466.999 1541 -659.999C1541 -659.999 1425 -691.999 1185 -523.999C1023 -437.999 884.901 -491.6 770.999 -466.999C180.786 -339.521 -337.144 602.266 -337.144 602.266L-120.014 738.62C-120.014 738.62 -47.3232 443.887 161.439 351.151Z" fill="url(#paint5_linear_1457_22444)"/>
<path d="M219.659 234.688C428.039 142.122 370.258 74.8677 475.985 -50.6292C581.712 -176.126 696.238 -83.8741 826.3 -187.707C956.361 -291.54 938.998 -209.41 1131 -428C1323 -646.59 1573 -612 1573 -612C1537 -696 1339 -689.999 1145 -559.999C983.634 -451.868 771.243 -517.999 576.999 -517.999C330.999 -517.999 118.232 -407.37 -33.0014 -335.999C-462.463 -133.326 -698.006 216.266 -698.006 216.266L-175.74 738.532C-175.74 738.532 10.8966 327.424 219.659 234.688Z" fill="url(#paint6_linear_1457_22444)"/>
<path d="M-1.12446e-07 852C147.218 824.249 179 790 358 790C537 790 755 936 959 916C1163 896 1251 975 1336 985C1421 995 1440 992 1440 992L1440 1507L-4.11521e-07 1507L-1.12446e-07 852Z" fill="url(#paint7_linear_1457_22444)"/>
<path opacity="0.111111" d="M-34.9805 1348.54C70.7614 1327.71 187.799 1304.13 411.322 1278.31C634.845 1252.5 712.541 1242.32 845.501 1212.49C978.461 1182.66 1019.45 1177.81 1309.46 1161.78C1600.01 1145.72 2008.65 1055.06 2008.65 1055.06" stroke="white" stroke-width="1.11111"/>
<path opacity="0.222222" d="M-60.344 1316.38C46.1458 1294.51 163.991 1269.54 389.804 1250.06C615.617 1230.57 694.062 1222.03 827.821 1189.21C961.58 1156.38 1002.98 1152.64 1296.65 1152.98C1590.86 1153.32 2001.99 1053.93 2001.99 1053.93" stroke="#F2F6FF" stroke-width="1.22222"/>
<path opacity="0.333333" d="M-85.4512 1283.66C21.8544 1260.79 140.591 1234.45 368.541 1221.37C596.49 1208.29 675.651 1201.41 810.353 1165.61C945.056 1129.81 986.846 1127.18 1283.68 1144.01C1581.06 1160.86 1995.12 1052.81 1995.12 1052.81" stroke="white" stroke-width="1.33333"/>
<path opacity="0.444444" d="M-110.291 1250.41C-2.10163 1226.54 117.609 1198.87 347.541 1192.25C577.472 1185.64 657.314 1180.44 793.105 1141.69C928.895 1102.95 971.048 1101.45 1270.56 1134.87C1570.63 1168.35 1988.04 1051.71 1988.04 1051.71" stroke="white" stroke-width="1.44444"/>
<path opacity="0.555556" d="M-134.85 1216.61C-25.7109 1191.78 95.0575 1162.79 326.813 1162.71C558.569 1162.63 639.058 1159.14 776.08 1117.47C913.103 1075.8 955.591 1075.45 1257.3 1125.56C1559.56 1175.76 1980.75 1050.62 1980.75 1050.62" stroke="white" stroke-width="1.55556"/>
<path opacity="0.666667" d="M-159.115 1182.27C-48.9588 1156.5 72.949 1126.24 306.371 1132.75C539.793 1139.26 620.893 1137.49 759.29 1092.94C897.688 1048.38 940.485 1049.18 1243.89 1116.06C1547.85 1183.07 1973.24 1049.54 1973.24 1049.54" stroke="#F2F6FF" stroke-width="1.66667"/>
<path opacity="0.777778" d="M-183.07 1147.4C-71.8307 1120.72 51.2979 1089.2 286.226 1102.37C521.154 1115.53 602.829 1115.51 742.744 1068.1C882.659 1020.69 925.738 1022.66 1230.35 1106.38C1535.51 1190.26 1965.52 1048.45 1965.52 1048.45" stroke="white" stroke-width="1.77778"/>
<path opacity="0.888889" d="M-206.702 1111.99C-94.3152 1084.43 30.1148 1051.7 266.387 1071.57C502.66 1091.44 584.874 1093.18 726.448 1042.96C868.022 992.744 911.354 995.882 1216.67 1096.51C1522.55 1197.32 1957.59 1047.35 1957.59 1047.35" stroke="white" stroke-width="1.88889"/>
<g style="mix-blend-mode:hard-light">
<circle cx="390.945" cy="1101" r="192" fill="url(#paint8_linear_1457_22444)"/>
</g>
<g style="mix-blend-mode:hard-light">
<path d="M401.945 1094C401.945 1200.04 315.984 1286 209.945 1286C103.907 1286 17.9453 1200.04 17.9453 1094C17.9453 987.961 103.907 902 209.945 902C315.984 902 401.945 987.961 401.945 1094Z" fill="url(#paint9_linear_1457_22444)"/>
</g>
<path d="M1181.95 1179C969.148 1097.11 907.932 1160.02 685.949 1179C463.967 1197.98 395.337 1245.55 229.949 1227C64.5611 1208.45 50.9245 1290.61 -28.198 1310.39C-28.198 1398.32 -28.198 1532.37 -28.198 1532.37L1547.99 1532.37L1547.99 1208.19C1547.99 1208.19 1395.14 1261.04 1181.95 1179Z" fill="url(#paint10_linear_1457_22444)"/>
</g>
<defs>
<filter id="filter0_d_1457_22444" x="-162.247" y="464.753" width="1699.49" height="798.495" filterUnits="userSpaceOnUse" color-interpolation-filters="sRGB">
<feFlood flood-opacity="0" result="BackgroundImageFix"/>
<feColorMatrix in="SourceAlpha" type="matrix" values="0 0 0 0 0 0 0 0 0 0 0 0 0 0 0 0 0 0 127 0" result="hardAlpha"/>
<feOffset/>
<feGaussianBlur stdDeviation="89.3737"/>
<feColorMatrix type="matrix" values="0 0 0 0 0.129427 0 0 0 0 0.224219 0 0 0 0 0.4375 0 0 0 0.3 0"/>
<feBlend mode="normal" in2="BackgroundImageFix" result="effect1_dropShadow_1457_22444"/>
<feBlend mode="normal" in="SourceGraphic" in2="effect1_dropShadow_1457_22444" result="shape"/>
</filter>
<filter id="filter1_d_1457_22444" x="-191.247" y="474.753" width="1727.49" height="802.495" filterUnits="userSpaceOnUse" color-interpolation-filters="sRGB">
<feFlood flood-opacity="0" result="BackgroundImageFix"/>
<feColorMatrix in="SourceAlpha" type="matrix" values="0 0 0 0 0 0 0 0 0 0 0 0 0 0 0 0 0 0 127 0" result="hardAlpha"/>
<feOffset/>
<feGaussianBlur stdDeviation="89.3737"/>
<feColorMatrix type="matrix" values="0 0 0 0 0.129427 0 0 0 0 0.224219 0 0 0 0 0.4375 0 0 0 0.3 0"/>
<feBlend mode="normal" in2="BackgroundImageFix" result="effect1_dropShadow_1457_22444"/>
<feBlend mode="normal" in="SourceGraphic" in2="effect1_dropShadow_1457_22444" result="shape"/>
</filter>
<filter id="filter2_d_1457_22444" x="-200.997" y="485.003" width="1738.99" height="807.995" filterUnits="userSpaceOnUse" color-interpolation-filters="sRGB">
<feFlood flood-opacity="0" result="BackgroundImageFix"/>
<feColorMatrix in="SourceAlpha" type="matrix" values="0 0 0 0 0 0 0 0 0 0 0 0 0 0 0 0 0 0 127 0" result="hardAlpha"/>
<feOffset/>
<feGaussianBlur stdDeviation="89.3737"/>
<feColorMatrix type="matrix" values="0 0 0 0 0.129427 0 0 0 0 0.224219 0 0 0 0 0.4375 0 0 0 0.3 0"/>
<feBlend mode="normal" in2="BackgroundImageFix" result="effect1_dropShadow_1457_22444"/>
<feBlend mode="normal" in="SourceGraphic" in2="effect1_dropShadow_1457_22444" result="shape"/>
</filter>
<filter id="filter3_d_1457_22444" x="-118.247" y="436.753" width="1671.49" height="830.495" filterUnits="userSpaceOnUse" color-interpolation-filters="sRGB">
<feFlood flood-opacity="0" result="BackgroundImageFix"/>
<feColorMatrix in="SourceAlpha" type="matrix" values="0 0 0 0 0 0 0 0 0 0 0 0 0 0 0 0 0 0 127 0" result="hardAlpha"/>
<feOffset/>
<feGaussianBlur stdDeviation="89.3737"/>
<feColorMatrix type="matrix" values="0 0 0 0 0.129427 0 0 0 0 0.224219 0 0 0 0 0.4375 0 0 0 0.3 0"/>
<feBlend mode="normal" in2="BackgroundImageFix" result="effect1_dropShadow_1457_22444"/>
<feBlend mode="normal" in="SourceGraphic" in2="effect1_dropShadow_1457_22444" result="shape"/>
</filter>
<linearGradient id="paint0_linear_1457_22444" x1="81.2558" y1="1550.18" x2="1290.14" y2="880.082" gradientUnits="userSpaceOnUse">
<stop stop-color="#844FFC"/>
<stop offset="1" stop-color="#2FB8FF"/>
</linearGradient>
<linearGradient id="paint1_linear_1457_22444" x1="152.519" y1="1508.2" x2="1243.41" y2="903.513" gradientUnits="userSpaceOnUse">
<stop stop-color="#844FFC"/>
<stop offset="1" stop-color="#2FB8FF"/>
</linearGradient>
<linearGradient id="paint2_linear_1457_22444" x1="142.519" y1="1518.2" x2="1233.41" y2="913.513" gradientUnits="userSpaceOnUse">
<stop stop-color="#844FFC"/>
<stop offset="1" stop-color="#2FB8FF"/>
</linearGradient>
<linearGradient id="paint3_linear_1457_22444" x1="77.0602" y1="1552.06" x2="1326.11" y2="859.702" gradientUnits="userSpaceOnUse">
<stop stop-color="#844FFC"/>
<stop offset="1" stop-color="#2FB8FF"/>
</linearGradient>
<linearGradient id="paint4_linear_1457_22444" x1="402.198" y1="838.674" x2="51.9378" y2="356.708" gradientUnits="userSpaceOnUse">
<stop stop-color="#B8CAEF" stop-opacity="0.24"/>
<stop offset="0.632289" stop-color="#E2EBF4" stop-opacity="0.94457"/>
<stop offset="1" stop-color="#E5EEF4" stop-opacity="0"/>
</linearGradient>
<linearGradient id="paint5_linear_1457_22444" x1="486.966" y1="294.112" x2="284.734" y2="91.8795" gradientUnits="userSpaceOnUse">
<stop stop-color="#F70000"/>
<stop offset="1" stop-color="#F16343"/>
</linearGradient>
<linearGradient id="paint6_linear_1457_22444" x1="435.284" y1="185.966" x2="85.0238" y2="-296" gradientUnits="userSpaceOnUse">
<stop stop-color="#B8CAEF" stop-opacity="0.24"/>
<stop offset="0.632289" stop-color="#E2EBF4" stop-opacity="0.94457"/>
<stop offset="1" stop-color="#E5EEF4" stop-opacity="0"/>
</linearGradient>
<linearGradient id="paint7_linear_1457_22444" x1="456.374" y1="1000.55" x2="530.773" y2="1204.98" gradientUnits="userSpaceOnUse">
<stop stop-color="#F68B2E"/>
<stop offset="1" stop-color="#F6BB5C"/>
</linearGradient>
<linearGradient id="paint8_linear_1457_22444" x1="390.945" y1="1031" x2="390.945" y2="1293" gradientUnits="userSpaceOnUse">
<stop stop-color="#FBFF2F" stop-opacity="0.42"/>
<stop offset="1" stop-color="#9EECD9"/>
</linearGradient>
<linearGradient id="paint9_linear_1457_22444" x1="209.945" y1="1004" x2="209.945" y2="1286" gradientUnits="userSpaceOnUse">
<stop stop-color="#0023D8"/>
<stop offset="1" stop-color="#3B00FF"/>
</linearGradient>
<linearGradient id="paint10_linear_1457_22444" x1="820.827" y1="1103.14" x2="820.827" y2="1532" gradientUnits="userSpaceOnUse">
<stop stop-color="#C8D0F8"/>
<stop offset="1" stop-color="#F2F6FF"/>
</linearGradient>
<clipPath id="clip0_1457_22444">
<rect width="1440" height="1360" fill="white"/>
</clipPath>
</defs>
</svg>
